<?xml version="1.0" encoding="UTF-8"?>
<svg width="24" height="24" viewBox="0 0 24 24" xmlns="http://www.w3.org/2000/svg">
  <!-- Cat paw -->
  <g transform="translate(4, 2)">
    <!-- Main paw pad -->
    <ellipse cx="8" cy="12" rx="5" ry="4" fill="#ff6b6b"/>
    
    <!-- Toe pads -->
    <circle cx="4" cy="7" r="2" fill="#ff6b6b"/>
    <circle cx="7" cy="6" r="2" fill="#ff6b6b"/>
    <circle cx="10" cy="6" r="2" fill="#ff6b6b"/>
    <circle cx="13" cy="7" r="2" fill="#ff6b6b"/>
    
    <!-- Claws extended -->
    <path d="M 4 5 L 3 3" stroke="#333" stroke-width="1.5" stroke-linecap="round"/>
    <path d="M 7 4 L 6.5 2" stroke="#333" stroke-width="1.5" stroke-linecap="round"/>
    <path d="M 10 4 L 10 2" stroke="#333" stroke-width="1.5" stroke-linecap="round"/>
    <path d="M 13 5 L 14 3" stroke="#333" stroke-width="1.5" stroke-linecap="round"/>
  </g>
  
  <!-- Bug being squashed -->
  <g transform="translate(8, 16)">
    <!-- Bug body (flattened) -->
    <ellipse cx="0" cy="0" rx="4" ry="1.5" fill="#4caf50" opacity="0.7"/>
    
    <!-- Bug legs (sticking out) -->
    <line x1="-3" y1="-0.5" x2="-5" y2="-1" stroke="#2e7d32" stroke-width="1"/>
    <line x1="-3" y1="0.5" x2="-5" y2="1" stroke="#2e7d32" stroke-width="1"/>
    <line x1="3" y1="-0.5" x2="5" y2="-1" stroke="#2e7d32" stroke-width="1"/>
    <line x1="3" y1="0.5" x2="5" y2="1" stroke="#2e7d32" stroke-width="1"/>
    
    <!-- Bug antennae -->
    <line x1="-1" y1="-1" x2="-2" y2="-2" stroke="#2e7d32" stroke-width="0.8"/>
    <line x1="1" y1="-1" x2="2" y2="-2" stroke="#2e7d32" stroke-width="0.8"/>
    
    <!-- Impact lines -->
    <path d="M -6 -2 L -4 -1" stroke="#ff9800" stroke-width="1" opacity="0.8"/>
    <path d="M 6 -2 L 4 -1" stroke="#ff9800" stroke-width="1" opacity="0.8"/>
    <path d="M 0 -3 L 0 -2" stroke="#ff9800" stroke-width="1" opacity="0.8"/>
  </g>
</svg>