<svg width="20" height="20" viewBox="0 0 20 20" xmlns="http://www.w3.org/2000/svg">
  <!-- Cat paw -->
  <g fill="#006cbe" stroke="#004a99" stroke-width="0.5">
    <!-- Main paw pad -->
    <ellipse cx="10" cy="14" rx="4" ry="2.5" />
    
    <!-- Toe pads -->
    <circle cx="7" cy="10" r="1.5" />
    <circle cx="10" cy="9" r="1.5" />
    <circle cx="13" cy="10" r="1.5" />
  </g>
  
  <!-- Document -->
  <g fill="#FFFFFF" stroke="#CCCCCC" stroke-width="0.4">
    <!-- Main document body -->
    <rect x="6" y="1" width="8" height="6" rx="0.3" />
    
    <!-- Document corner fold -->
    <path d="M 12 1 L 12 3 L 14 3 Z" fill="#E0E0E0" stroke="#CCCCCC" stroke-width="0.3" />
    
    <!-- Document lines -->
    <g stroke="#999999" stroke-width="0.2">
      <line x1="7" y1="2.5" x2="11.5" y2="2.5" />
      <line x1="7" y1="3.5" x2="12.5" y2="3.5" />
      <line x1="7" y1="4.5" x2="12.5" y2="4.5" />
      <line x1="7" y1="5.5" x2="11" y2="5.5" />
    </g>
    
    <!-- Document title area -->
    <rect x="7" y="1.8" width="4" height="0.5" fill="#4A90E2" rx="0.1" />
  </g>
  
  <!-- Sparkle effects around document -->
  <g fill="#FFD700" opacity="0.8">
    <circle cx="4" cy="2" r="0.3" />
    <circle cx="16" cy="1.5" r="0.3" />
    <circle cx="15" cy="6" r="0.3" />
    
    <!-- Small sparkle crosses -->
    <g stroke="#FFD700" stroke-width="0.5" opacity="0.6">
      <path d="M 3 4 L 3.6 4.6 M 3.6 4 L 3 4.6" />
      <path d="M 16.5 3.5 L 17.1 4.1 M 17.1 3.5 L 16.5 4.1" />
    </g>
  </g>
</svg>