<svg width="20" height="20" viewBox="0 0 20 20" xmlns="http://www.w3.org/2000/svg">
  <!-- Cat paw -->
  <g fill="#006cbe" stroke="#004a99" stroke-width="0.5">
    <!-- Main paw pad -->
    <ellipse cx="10" cy="14" rx="4" ry="2.5" />
    
    <!-- Toe pads -->
    <circle cx="7" cy="10" r="1.5" />
    <circle cx="10" cy="9" r="1.5" />
    <circle cx="13" cy="10" r="1.5" />
  </g>
  
  <!-- Settings gear -->
  <g fill="#666666" stroke="#333333" stroke-width="0.3">
    <!-- Main gear body -->
    <circle cx="10" cy="4" r="2.5" />
    
    <!-- Gear teeth -->
    <rect x="9.7" y="1.2" width="0.6" height="1" />
    <rect x="9.7" y="6.8" width="0.6" height="1" />
    <rect x="7.2" y="3.7" width="1" height="0.6" />
    <rect x="12.8" y="3.7" width="1" height="0.6" />
    
    <!-- Diagonal teeth -->
    <rect x="8.1" y="2.1" width="0.8" height="0.6" transform="rotate(45 8.5 2.4)" />
    <rect x="11.1" y="2.1" width="0.8" height="0.6" transform="rotate(-45 11.5 2.4)" />
    <rect x="8.1" y="5.3" width="0.8" height="0.6" transform="rotate(-45 8.5 5.6)" />
    <rect x="11.1" y="5.3" width="0.8" height="0.6" transform="rotate(45 11.5 5.6)" />
    
    <!-- Center hole -->
    <circle cx="10" cy="4" r="0.8" fill="#FFFFFF" stroke="#333333" stroke-width="0.2" />
  </g>
  
  <!-- Sparkle effects around gear -->
  <g fill="#FFD700" opacity="0.8">
    <circle cx="6" cy="2" r="0.3" />
    <circle cx="14" cy="1.5" r="0.3" />
    <circle cx="15" cy="6" r="0.3" />
    
    <!-- Small sparkle crosses -->
    <g stroke="#FFD700" stroke-width="0.5" opacity="0.6">
      <path d="M 5 4 L 5.6 4.6 M 5.6 4 L 5 4.6" />
      <path d="M 14.5 3 L 15.1 3.6 M 15.1 3 L 14.5 3.6" />
    </g>
  </g>
</svg>