<svg width="20" height="20" viewBox="0 0 20 20" xmlns="http://www.w3.org/2000/svg">
  <!-- Cat paw (dark mode - lighter colors) -->
  <g fill="#D4A574" stroke="#B8926A" stroke-width="0.5">
    <!-- Main paw pad -->
    <ellipse cx="10" cy="14" rx="4" ry="2.5" />
    
    <!-- Toe pads -->
    <circle cx="7" cy="10" r="1.5" />
    <circle cx="10" cy="9" r="1.5" />
    <circle cx="13" cy="10" r="1.5" />
  </g>
  
  <!-- Gear/settings icon -->
  <g fill="#AAA" stroke="#888" stroke-width="0.5">
    <!-- Center circle -->
    <circle cx="10" cy="4.5" r="1.2" fill="#BBB" />
    
    <!-- Gear teeth -->
    <g fill="#AAA">
      <rect x="9.4" y="2.2" width="1.2" height="0.8" rx="0.2" />
      <rect x="9.4" y="6" width="1.2" height="0.8" rx="0.2" />
      <rect x="7.2" y="3.9" width="0.8" height="1.2" rx="0.2" />
      <rect x="12" y="3.9" width="0.8" height="1.2" rx="0.2" />
      
      <!-- Diagonal teeth -->
      <rect x="7.8" y="2.8" width="0.7" height="0.9" rx="0.2" transform="rotate(-45 8.15 3.25)" />
      <rect x="11.5" y="2.8" width="0.7" height="0.9" rx="0.2" transform="rotate(45 11.85 3.25)" />
      <rect x="7.8" y="5.8" width="0.7" height="0.9" rx="0.2" transform="rotate(45 8.15 6.25)" />
      <rect x="11.5" y="5.8" width="0.7" height="0.9" rx="0.2" transform="rotate(-45 11.85 6.25)" />
    </g>
    
    <!-- Center hole -->
    <circle cx="10" cy="4.5" r="0.5" fill="#666" />
  </g>
  
  <!-- Sparkle effects suggesting motion/adjustment -->
  <g stroke="#FFD700" stroke-width="0.6" fill="none" opacity="0.7">
    <path d="M 14.5 4 A 1 1 0 0 1 15 5" />
    <path d="M 5.5 4 A 1 1 0 0 0 5 5" />
  </g>
</svg>
