<?xml version="1.0" encoding="UTF-8"?>
<svg width="200" height="200" viewBox="0 0 200 200" xmlns="http://www.w3.org/2000/svg">
  
  <!-- Head -->
  <circle cx="100" cy="70" r="25" fill="#fdbcb4"/>
  
  <!-- Hair -->
  <path d="M75 55 C 75 45, 125 45, 125 55 C 125 50, 120 48, 115 50 C 110 45, 90 45, 85 50 C 80 48, 75 50, 75 55" fill="#8b4513"/>
  
  <!-- Eyes -->
  <circle cx="92" cy="65" r="3" fill="#333"/>
  <circle cx="108" cy="65" r="3" fill="#333"/>
  <circle cx="92" cy="64" r="1" fill="#fff"/>
  <circle cx="108" cy="64" r="1" fill="#fff"/>
  
  <!-- Nose -->
  <circle cx="100" cy="72" r="1" fill="#333"/>
  
  <!-- Mouth -->
  <path d="M 95 78 Q 100 82 105 78" stroke="#333" stroke-width="1.5" fill="none"/>
  
  <!-- Body -->
  <rect x="82" y="92" width="36" height="45" rx="8" fill="#0066cc"/>
  
  <!-- Arms -->
  <circle cx="75" cy="105" r="8" fill="#fdbcb4"/>
  <circle cx="125" cy="105" r="8" fill="#fdbcb4"/>
  <rect x="67" y="98" width="16" height="15" rx="8" fill="#0066cc"/>
  <rect x="117" y="98" width="16" height="15" rx="8" fill="#0066cc"/>
  
  <!-- Hands pointing to workflow elements -->
  <circle cx="60" cy="120" r="5" fill="#fdbcb4"/>
  <circle cx="140" cy="120" r="5" fill="#fdbcb4"/>
  
  <!-- SGEX Workbench elements on the right side (L1, L2, etc.) -->
  <g transform="translate(145, 60)">
    <!-- Workflow boxes -->
    <rect x="0" y="0" width="30" height="15" rx="3" fill="#e3f2fd" stroke="#0066cc"/>
    <text x="15" y="10" text-anchor="middle" font-size="8" font-family="Arial" fill="#0066cc">L1</text>
    
    <rect x="0" y="20" width="30" height="15" rx="3" fill="#e8f5e8" stroke="#4caf50"/>
    <text x="15" y="30" text-anchor="middle" font-size="8" font-family="Arial" fill="#4caf50">L2</text>
    
    <rect x="0" y="40" width="30" height="15" rx="3" fill="#fff3e0" stroke="#ff9800"/>
    <text x="15" y="50" text-anchor="middle" font-size="8" font-family="Arial" fill="#ff9800">L3</text>
    
    <!-- Connection lines -->
    <line x1="-5" y1="7" x2="0" y2="7" stroke="#0066cc" stroke-width="1"/>
    <line x1="-5" y1="27" x2="0" y2="27" stroke="#4caf50" stroke-width="1"/>
    <line x1="-5" y1="47" x2="0" y2="47" stroke="#ff9800" stroke-width="1"/>
  </g>
  
  <!-- Question mark bubble -->
  <g transform="translate(50, 40)">
    <circle cx="0" cy="0" r="12" fill="#fff" stroke="#0066cc" stroke-width="2"/>
    <text x="0" y="2" text-anchor="middle" font-size="14" font-family="Arial" fill="#0066cc" font-weight="bold">?</text>
  </g>
  
  <!-- WHO/SGEX branding -->
  <text x="100" y="165" text-anchor="middle" font-size="12" font-family="Arial" fill="#0066cc" font-weight="bold">SGEX</text>
  <text x="100" y="180" text-anchor="middle" font-size="8" font-family="Arial" fill="#666">Workbench Helper</text>
</svg>