<?xml version="1.0" encoding="UTF-8"?>
<svg width="200" height="200" viewBox="0 0 200 200" xmlns="http://www.w3.org/2000/svg">
  <!-- Tabby Cat Mascot -->
  <defs>
    <!-- Tabby stripe pattern -->
    <pattern id="tabbyStripes" x="0" y="0" width="8" height="8" patternUnits="userSpaceOnUse">
      <rect width="8" height="8" fill="#D2B48C"/>
      <rect width="2" height="8" fill="#8B4513" x="1"/>
      <rect width="2" height="8" fill="#8B4513" x="5"/>
    </pattern>
    
    <!-- Darker tabby stripes for shadows -->
    <pattern id="tabbyStripesDark" x="0" y="0" width="8" height="8" patternUnits="userSpaceOnUse">
      <rect width="8" height="8" fill="#B8860B"/>
      <rect width="2" height="8" fill="#654321" x="1"/>
      <rect width="2" height="8" fill="#654321" x="5"/>
    </pattern>
  </defs>
  
  <!-- Cat body -->
  <ellipse cx="100" cy="130" rx="45" ry="55" fill="url(#tabbyStripes)" stroke="#654321" stroke-width="2"/>
  
  <!-- Cat head -->
  <circle cx="100" cy="80" r="35" fill="url(#tabbyStripes)" stroke="#654321" stroke-width="2"/>
  
  <!-- Ears -->
  <polygon points="75,55 85,35 95,55" fill="url(#tabbyStripes)" stroke="#654321" stroke-width="2"/>
  <polygon points="105,55 115,35 125,55" fill="url(#tabbyStripes)" stroke="#654321" stroke-width="2"/>
  
  <!-- Inner ears -->
  <polygon points="78,52 85,40 92,52" fill="#FFB6C1"/>
  <polygon points="108,52 115,40 122,52" fill="#FFB6C1"/>
  
  <!-- Eyes -->
  <ellipse cx="90" cy="75" rx="6" ry="8" fill="#90EE90"/>
  <ellipse cx="110" cy="75" rx="6" ry="8" fill="#90EE90"/>
  <ellipse cx="90" cy="75" rx="3" ry="6" fill="#000"/>
  <ellipse cx="110" cy="75" rx="3" ry="6" fill="#000"/>
  
  <!-- Eye highlights -->
  <circle cx="91" cy="72" r="1.5" fill="#FFF"/>
  <circle cx="111" cy="72" r="1.5" fill="#FFF"/>
  
  <!-- Nose -->
  <polygon points="97,85 100,82 103,85 100,88" fill="#FF69B4"/>
  
  <!-- Mouth -->
  <path d="M 100 88 Q 95 92 90 90" stroke="#000" stroke-width="2" fill="none"/>
  <path d="M 100 88 Q 105 92 110 90" stroke="#000" stroke-width="2" fill="none"/>
  
  <!-- Whiskers -->
  <line x1="70" y1="82" x2="85" y2="80" stroke="#000" stroke-width="1.5"/>
  <line x1="70" y1="88" x2="85" y2="88" stroke="#000" stroke-width="1.5"/>
  <line x1="115" y1="80" x2="130" y2="82" stroke="#000" stroke-width="1.5"/>
  <line x1="115" y1="88" x2="130" y2="88" stroke="#000" stroke-width="1.5"/>
  
  <!-- Front paws -->
  <ellipse cx="80" cy="170" rx="8" ry="12" fill="url(#tabbyStripes)" stroke="#654321" stroke-width="1"/>
  <ellipse cx="120" cy="170" rx="8" ry="12" fill="url(#tabbyStripes)" stroke="#654321" stroke-width="1"/>
  
  <!-- Paw pads -->
  <ellipse cx="80" cy="175" rx="4" ry="2" fill="#FF69B4"/>
  <ellipse cx="120" cy="175" rx="4" ry="2" fill="#FF69B4"/>
  
  <!-- Tail -->
  <path d="M 145 140 Q 170 120 165 90 Q 160 70 170 60" stroke="url(#tabbyStripes)" stroke-width="12" fill="none"/>
  <path d="M 145 140 Q 170 120 165 90 Q 160 70 170 60" stroke="#654321" stroke-width="2" fill="none"/>
  
  <!-- Tabby markings on face -->
  <path d="M 85 65 Q 90 60 95 65" stroke="#654321" stroke-width="2" fill="none"/>
  <path d="M 105 65 Q 110 60 115 65" stroke="#654321" stroke-width="2" fill="none"/>
  <path d="M 90 70 Q 100 65 110 70" stroke="#654321" stroke-width="2" fill="none"/>
  
  <!-- M marking on forehead (classic tabby feature) -->
  <path d="M 90 50 L 95 45 L 100 50 L 105 45 L 110 50" stroke="#654321" stroke-width="2.5" fill="none"/>
</svg>