<svg width="20" height="20" viewBox="0 0 20 20" xmlns="http://www.w3.org/2000/svg">
  <!-- Cat paw -->
  <g fill="#006cbe" stroke="#004a99" stroke-width="0.5">
    <!-- Main paw pad -->
    <ellipse cx="10" cy="14" rx="4" ry="2.5" />
    
    <!-- Toe pads -->
    <circle cx="7" cy="10" r="1.5" />
    <circle cx="10" cy="9" r="1.5" />
    <circle cx="13" cy="10" r="1.5" />
  </g>
  
  <!-- Workflow diagram -->
  <g>
    <!-- Start node -->
    <circle cx="4" cy="3" r="1" fill="#4CAF50" stroke="#388E3C" stroke-width="0.3" />
    
    <!-- Process box -->
    <rect x="8" y="2" width="3" height="2" rx="0.3" fill="#2196F3" stroke="#1976D2" stroke-width="0.3" />
    
    <!-- Decision diamond -->
    <path d="M 16 3 L 17.5 4.5 L 16 6 L 14.5 4.5 Z" fill="#FF9800" stroke="#F57C00" stroke-width="0.3" />
    
    <!-- Flow arrows -->
    <g stroke="#333333" stroke-width="0.4" fill="none">
      <path d="M 5 3 L 7.5 3" marker-end="url(#arrowhead)" />
      <path d="M 11 3 L 14 3" marker-end="url(#arrowhead)" />
      <path d="M 16 2 L 16 1" marker-end="url(#arrowhead)" />
    </g>
    
    <!-- End node -->
    <circle cx="16" cy="0.5" r="0.8" fill="#F44336" stroke="#D32F2F" stroke-width="0.3" />
    
    <!-- Arrow marker definition -->
    <defs>
      <marker id="arrowhead" markerWidth="10" markerHeight="7" refX="9" refY="3.5" orient="auto">
        <polygon points="0 0, 10 3.5, 0 7" fill="#333333" />
      </marker>
    </defs>
  </g>
  
  <!-- Sparkle effects around workflow -->
  <g fill="#FFD700" opacity="0.8">
    <circle cx="2" cy="1" r="0.3" />
    <circle cx="18" cy="2" r="0.3" />
    <circle cx="6" cy="6" r="0.3" />
    
    <!-- Small sparkle crosses -->
    <g stroke="#FFD700" stroke-width="0.5" opacity="0.6">
      <path d="M 1 4 L 1.6 4.6 M 1.6 4 L 1 4.6" />
      <path d="M 17.5 5.5 L 18.1 6.1 M 18.1 5.5 L 17.5 6.1" />
    </g>
  </g>
</svg>