<svg width="20" height="20" viewBox="0 0 20 20" xmlns="http://www.w3.org/2000/svg">
  <!-- Cat paw -->
  <g fill="#006cbe" stroke="#004a99" stroke-width="0.5">
    <!-- Main paw pad -->
    <ellipse cx="10" cy="12" rx="4" ry="3" />
    
    <!-- Toe pads -->
    <circle cx="7" cy="8" r="1.5" />
    <circle cx="10" cy="7" r="1.5" />
    <circle cx="13" cy="8" r="1.5" />
  </g>
  
  <!-- More realistic bug -->
  <g>
    <!-- Bug head -->
    <ellipse cx="10" cy="14.5" rx="1.2" ry="1" fill="#2E7D32" stroke="#1B5E20" stroke-width="0.3" />
    
    <!-- Bug thorax -->
    <ellipse cx="10" cy="16" rx="1.5" ry="1.2" fill="#388E3C" stroke="#2E7D32" stroke-width="0.3" />
    
    <!-- Bug abdomen -->
    <ellipse cx="10" cy="17.5" rx="1.8" ry="1.5" fill="#43A047" stroke="#388E3C" stroke-width="0.3" />
    
    <!-- Bug legs (6 legs like a real insect) -->
    <g stroke="#1B5E20" stroke-width="0.4" fill="none">
      <!-- Front legs -->
      <path d="M 8.5 15.5 L 7 14.5 L 6.5 15" />
      <path d="M 11.5 15.5 L 13 14.5 L 13.5 15" />
      <!-- Middle legs -->
      <path d="M 8.2 16.2 L 6.5 16.5 L 6 17.2" />
      <path d="M 11.8 16.2 L 13.5 16.5 L 14 17.2" />
      <!-- Back legs -->
      <path d="M 8.5 17.8 L 7.2 18.5 L 6.8 19" />
      <path d="M 11.5 17.8 L 12.8 18.5 L 13.2 19" />
    </g>
    
    <!-- Bug antennae -->
    <g stroke="#1B5E20" stroke-width="0.4" fill="#1B5E20">
      <line x1="9.2" y1="13.8" x2="8.5" y2="12.5" />
      <line x1="10.8" y1="13.8" x2="11.5" y2="12.5" />
      <circle cx="8.5" cy="12.5" r="0.2" />
      <circle cx="11.5" cy="12.5" r="0.2" />
    </g>
    
    <!-- Bug eyes -->
    <circle cx="9.3" cy="14.2" r="0.3" fill="#000000" opacity="0.8" />
    <circle cx="10.7" cy="14.2" r="0.3" fill="#000000" opacity="0.8" />
    <circle cx="9.4" cy="14.1" r="0.1" fill="#FFFFFF" />
    <circle cx="10.8" cy="14.1" r="0.1" fill="#FFFFFF" />
    
    <!-- Wing details -->
    <ellipse cx="9" cy="15.5" rx="0.8" ry="0.4" fill="#81C784" opacity="0.6" stroke="#66BB6A" stroke-width="0.2" />
    <ellipse cx="11" cy="15.5" rx="0.8" ry="0.4" fill="#81C784" opacity="0.6" stroke="#66BB6A" stroke-width="0.2" />
  </g>
  
  <!-- Action lines to show squashing motion -->
  <g stroke="#FFD700" stroke-width="1" fill="none" opacity="0.7">
    <path d="M 15 6 L 13 8" />
    <path d="M 16 8 L 14 10" />
    <path d="M 5 6 L 7 8" />
    <path d="M 4 8 L 6 10" />
  </g>
</svg>